<?xml version="1.0" encoding="UTF-8" standalone="no"?>
<!DOCTYPE svg PUBLIC "-//W3C//DTD SVG 1.1//EN" "http://www.w3.org/Graphics/SVG/1.1/DTD/svg11.dtd">
<!-- Generated by Microsoft Visio, SVG Export state-transitions.svg Page-1 -->
<svg xmlns="http://www.w3.org/2000/svg" xmlns:xlink="http://www.w3.org/1999/xlink" xmlns:ev="http://www.w3.org/2001/xml-events"
		width="10.5312in" height="3.25506in" viewBox="0 0 758.246 234.364" xml:space="preserve" color-interpolation-filters="sRGB"
		class="st8">
	<style type="text/css">
	<![CDATA[
		.st1 {fill:none;stroke:#5b9bd5;stroke-width:2.25}
		.st2 {fill:#759fcc;font-family:Calibri;font-size:0.833336em}
		.st3 {marker-end:url(#mrkr4-21);stroke:#5b9bd5;stroke-linecap:round;stroke-linejoin:round;stroke-width:1}
		.st4 {fill:#5b9bd5;fill-opacity:1;stroke:#5b9bd5;stroke-opacity:1;stroke-width:0.28409090909091}
		.st5 {fill:#ffffff;stroke:none;stroke-linecap:butt;stroke-width:7.2}
		.st6 {fill:#4f87bb;font-family:Calibri;font-size:0.666664em}
		.st7 {fill:#ffffff;stroke:none;stroke-linecap:butt}
		.st8 {fill:none;fill-rule:evenodd;font-size:12px;overflow:visible;stroke-linecap:square;stroke-miterlimit:3}
	]]>
	</style>

	<defs id="Markers">
		<g id="lend4">
			<path d="M 2 1 L 0 0 L 2 -1 L 2 1 " style="stroke:none"/>
		</g>
		<marker id="mrkr4-21" class="st4" refX="-7.04" orient="auto" markerUnits="strokeWidth" overflow="visible">
			<use xlink:href="#lend4" transform="scale(-3.52,-3.52) "/>
		</marker>
	</defs>
	<g>
		<title>Page-1</title>
		<g id="shape1-1" transform="translate(88.871,-111.937)">
			<title>Circle</title>
			<desc>“created”</desc>
			<path d="M0 200.05 A34.3125 34.3125 0 0 1 68.62 200.05 A34.3125 34.3125 0 1 1 0 200.05 Z" class="st1"/>
			<text x="14.6" y="203.05" class="st2">“created”</text>		</g>
		<g id="shape2-4" transform="translate(238.496,-111.937)">
			<title>Circle.2</title>
			<desc>“interactive”</desc>
			<path d="M0 200.05 A34.3125 34.3125 0 0 1 68.62 200.05 A34.3125 34.3125 0 1 1 0 200.05 Z" class="st1"/>
			<text x="8.37" y="203.05" class="st2">“interactive”</text>		</g>
		<g id="shape4-7" transform="translate(537.746,-111.937)">
			<title>Circle.4</title>
			<desc>“accepted”</desc>
			<path d="M0 200.05 A34.3125 34.3125 0 0 1 68.62 200.05 A34.3125 34.3125 0 1 1 0 200.05 Z" class="st1"/>
			<text x="11.6" y="203.05" class="st2">“accepted”</text>		</g>
		<g id="shape5-10" transform="translate(687.371,-111.937)">
			<title>Circle.5</title>
			<desc>“closed”</desc>
			<path d="M0 200.05 A34.3125 34.3125 0 0 1 68.62 200.05 A34.3125 34.3125 0 1 1 0 200.05 Z" class="st1"/>
			<text x="17.16" y="203.05" class="st2">“closed”</text>		</g>
		<g id="shape6-13" transform="translate(388.121,-2.25)">
			<title>Circle.6</title>
			<desc>“delegated”</desc>
			<path d="M0 200.05 A34.3125 34.3125 0 0 1 68.62 200.05 A34.3125 34.3125 0 1 1 0 200.05 Z" class="st1"/>
			<text x="9.84" y="203.05" class="st2">“delegated”</text>		</g>
		<g id="shape7-16" transform="translate(157.496,-137.25)">
			<title>Dynamic connector</title>
			<desc>show()</desc>
			<path d="M0 225.36 L73.96 225.36" class="st3"/>
			<rect x="29.4396" y="220.565" width="22.121" height="9.59985" class="st5"/>
			<text x="29.44" y="227.76" class="st6">show()</text>		</g>
		<g id="shape12-24" transform="translate(606.371,-137.25)">
			<title>Dynamic connector.12</title>
			<desc>complete()</desc>
			<path d="M0 225.36 L73.96 225.36" class="st3"/>
			<rect x="22.7388" y="220.565" width="35.5226" height="9.59985" class="st7"/>
			<text x="22.74" y="227.76" class="st6">complete()</text>		</g>
		<g id="shape15-31" transform="translate(307.121,-137.25)">
			<title>Dynamic connector.15</title>
			<desc>User accepts request</desc>
			<path d="M0 225.36 L223.58 225.36" class="st3"/>
			<rect x="81.2115" y="220.565" width="68.2023" height="9.59985" class="st7"/>
			<text x="81.21" y="227.76" class="st6">User accepts request</text>		</g>
		<g id="shape16-38" transform="translate(297.074,-121.984)">
			<title>Dynamic connector.16</title>
			<desc>User Agent delegates UX</desc>
			<path d="M0 234.36 L95.07 291.88" class="st3"/>
			<rect x="10.354" y="260.142" width="80.3856" height="9.59985" class="st5"/>
			<text x="10.35" y="267.34" class="st6">User Agent delegates UX</text>		</g>
		<g id="shape18-45" transform="translate(446.699,-60.8283)">
			<title>Dynamic connector.18</title>
			<desc>User accepts request</desc>
			<path d="M0 234.36 L95.07 176.85" class="st3"/>
			<rect x="16.4457" y="198.987" width="68.2023" height="9.59985" class="st5"/>
			<text x="16.45" y="206.19" class="st6">User accepts request</text>		</g>
		<g id="shape19-52" transform="translate(272.808,-171.562)">
			<title>Dynamic connector.19</title>
			<desc>abort() or error</desc>
			<path d="M0 225.36 L0 180.36 L448.87 180.36 L448.87 218.32" class="st3"/>
			<rect x="199.555" y="175.565" width="49.7659" height="9.59985" class="st5"/>
			<text x="199.55" y="182.76" class="st6">abort() or error</text>		</g>
		<g id="shape21-59" transform="translate(7.87096,-137.25)">
			<title>Dynamic connector.21</title>
			<desc>Constructor</desc>
			<path d="M0 225.36 L73.96 225.36" class="st3"/>
			<rect x="21.2209" y="220.565" width="38.5584" height="9.59985" class="st5"/>
			<text x="21.22" y="227.76" class="st6">Constructor</text>		</g>
	</g>
</svg>
